<svg width="32" height="32" viewBox="0 0 32 32" fill="none" xmlns="http://www.w3.org/2000/svg">
<rect width="32" height="32" fill="#FCEEE6"/>
<path d="M24.4197 6.0166C24.7595 5.99903 25.1264 5.98021 25.4334 6.04687C25.606 6.08437 25.7204 6.1467 25.8191 6.29394C25.8827 6.63166 25.9389 6.96596 25.9519 7.30957C25.9798 8.03795 25.9728 8.77164 25.9656 9.50391C25.9624 9.83602 25.9598 10.1681 25.9598 10.499L25.9588 16.8076C25.959 17.0147 25.9659 17.3634 25.9734 17.7881C25.9998 19.2747 26.0426 21.6923 25.9051 22.2246C25.8065 22.6062 25.6055 22.7816 25.2654 22.9766C24.9617 23.0141 24.6448 23.0216 24.3309 23.0283C24.1665 23.0319 24.0024 23.0351 23.8416 23.043C22.3275 23.1178 20.7284 23.2683 19.3377 23.8936C18.9654 24.061 18.5916 24.2578 18.2644 24.5C18.0968 24.6241 17.9094 24.7966 17.7098 24.9805C17.2116 25.4393 16.6356 25.9696 16.0926 25.999C15.4669 26.0324 14.8734 25.5118 14.326 25.0312C14.0654 24.8026 13.8152 24.5829 13.5769 24.4365C12.9992 24.0817 12.3459 23.8089 11.698 23.6025C10.6293 23.2625 9.49697 23.0883 8.37577 23.0234C8.20664 23.0135 8.03238 23.0141 7.85722 23.0146C7.53184 23.0157 7.20216 23.0161 6.89531 22.9502C6.62794 22.8924 6.45571 22.7601 6.25468 22.5869C6.10764 22.2468 6.06184 21.8265 6.04374 21.46C6.01134 20.8044 6.01966 20.1413 6.02812 19.4805C6.0319 19.1871 6.03575 18.8941 6.03593 18.6025L6.03984 13.0225L6.03495 8.80078C6.03484 8.6165 6.02767 8.4161 6.01933 8.20898C5.99684 7.64802 5.97197 7.03689 6.09745 6.55859C6.16643 6.29579 6.32248 6.17945 6.54863 6.03906C9.03662 5.88215 11.7542 6.38514 13.9402 7.56836C14.6664 7.96136 15.3211 8.44257 15.9822 8.92871C16.3539 8.65908 16.7283 8.38926 17.1111 8.13476C19.1691 6.76664 21.62 6.09046 24.1023 6.03027C24.2035 6.02781 24.3102 6.02226 24.4197 6.0166ZM24.1336 7.91211C23.8322 7.91453 23.513 7.89602 23.2146 7.93457C21.1727 8.11417 18.5535 8.8406 17.1668 10.4229C17.108 10.4905 17.0506 10.56 16.9959 10.6309L16.993 23.0557C17.2197 22.8953 17.4443 22.7298 17.6746 22.5742C19.5824 21.4655 21.9691 21.2751 24.1434 21.123C24.1435 16.722 24.2036 12.3123 24.1336 7.91211ZM7.86113 7.91504C7.81434 9.75325 7.82488 11.5983 7.83476 13.4404C7.83884 14.1959 7.84245 14.9518 7.84257 15.7061C7.84269 16.2601 7.8352 16.8179 7.82792 17.377V17.3818C7.81189 18.6193 7.79586 19.8635 7.85917 21.0869C10.3718 21.2974 12.8951 21.5389 14.9881 23.0332C14.9757 18.9099 14.999 14.7868 15.0584 10.6641C13.4132 8.97422 10.8387 7.97605 8.46464 7.91113C8.2637 7.90694 8.06195 7.90867 7.86113 7.91504Z" fill="#010101"/>
<path d="M24.4197 6.0166L24.4276 6.16912L24.4276 6.16912L24.4197 6.0166ZM25.4334 6.04687L25.4658 5.89763L25.4658 5.89763L25.4334 6.04687ZM25.8191 6.29394L25.9692 6.2657L25.9634 6.23492L25.946 6.2089L25.8191 6.29394ZM25.9519 7.30957L25.7993 7.31538V7.3154L25.9519 7.30957ZM25.9656 9.50391L26.1183 9.5054V9.5054L25.9656 9.50391ZM25.9598 10.499L26.1125 10.499V10.499H25.9598ZM25.9588 16.8076L25.8061 16.8076V16.8078L25.9588 16.8076ZM25.9734 17.7881L26.1261 17.7854V17.7854L25.9734 17.7881ZM25.9051 22.2246L25.7572 22.1864L25.7572 22.1864L25.9051 22.2246ZM25.2654 22.9766L25.2841 23.1281L25.3147 23.1244L25.3414 23.1091L25.2654 22.9766ZM24.3309 23.0283L24.3276 22.8756H24.3276L24.3309 23.0283ZM23.8416 23.043L23.8341 22.8904L23.8341 22.8904L23.8416 23.043ZM19.3377 23.8936L19.4003 24.0328H19.4003L19.3377 23.8936ZM18.2644 24.5L18.3553 24.6228L18.3553 24.6227L18.2644 24.5ZM17.7098 24.9805L17.6063 24.8681L17.6063 24.8681L17.7098 24.9805ZM16.0926 25.999L16.1007 26.1515L16.1008 26.1515L16.0926 25.999ZM14.326 25.0312L14.4267 24.9165L14.4267 24.9165L14.326 25.0312ZM13.5769 24.4365L13.497 24.5667H13.497L13.5769 24.4365ZM11.698 23.6025L11.7444 23.457L11.7443 23.457L11.698 23.6025ZM8.37577 23.0234L8.36685 23.1759L8.36695 23.1759L8.37577 23.0234ZM7.85722 23.0146L7.85672 22.8619H7.85672L7.85722 23.0146ZM6.89531 22.9502L6.86303 23.0995L6.86324 23.0995L6.89531 22.9502ZM6.25468 22.5869L6.1145 22.6475L6.12842 22.6797L6.15499 22.7026L6.25468 22.5869ZM6.04374 21.46L6.19628 21.4524L6.19628 21.4524L6.04374 21.46ZM6.02812 19.4805L5.87541 19.4785L5.87541 19.4785L6.02812 19.4805ZM6.03593 18.6025L5.88321 18.6024L5.88321 18.6024L6.03593 18.6025ZM6.03984 13.0225L6.19256 13.0226L6.19256 13.0223L6.03984 13.0225ZM6.03495 8.80078L5.88223 8.80088L5.88223 8.80096L6.03495 8.80078ZM6.01933 8.20898L5.86673 8.2151L5.86673 8.21513L6.01933 8.20898ZM6.09745 6.55859L5.94973 6.51982L5.94973 6.51984L6.09745 6.55859ZM6.54863 6.03906L6.53901 5.88664L6.5007 5.88906L6.46808 5.90931L6.54863 6.03906ZM13.9402 7.56836L13.8675 7.70267L13.8675 7.70267L13.9402 7.56836ZM15.9822 8.92871L15.8917 9.05175L15.9816 9.11783L16.0719 9.05233L15.9822 8.92871ZM17.1111 8.13476L17.1957 8.26195L17.1957 8.26195L17.1111 8.13476ZM24.1023 6.03027L24.106 6.18295L24.1061 6.18295L24.1023 6.03027ZM24.1336 7.91211L24.2863 7.90968L24.2839 7.75818L24.1324 7.75939L24.1336 7.91211ZM23.2146 7.93457L23.228 8.08683L23.2342 8.08603L23.2146 7.93457ZM17.1668 10.4229L17.0519 10.3222L17.0515 10.3227L17.1668 10.4229ZM16.9959 10.6309L16.875 10.5375L16.8432 10.5787L16.8432 10.6308L16.9959 10.6309ZM16.993 23.0557L16.8402 23.0556L16.8402 23.3508L17.0811 23.1804L16.993 23.0557ZM17.6746 22.5742L17.5977 22.4419L17.5891 22.4477L17.6746 22.5742ZM24.1434 21.123L24.154 21.2754L24.2961 21.2655L24.2961 21.123L24.1434 21.123ZM7.86113 7.91504L7.85628 7.76239L7.71212 7.76696L7.70845 7.91115L7.86113 7.91504ZM7.83476 13.4404L7.68204 13.4412V13.4413L7.83476 13.4404ZM7.84257 15.7061L7.68985 15.7061V15.7061L7.84257 15.7061ZM7.82792 17.377L7.6752 17.375V17.377H7.82792ZM7.82792 17.3818L7.98065 17.3838V17.3818H7.82792ZM7.85917 21.0869L7.70665 21.0948L7.71354 21.228L7.84643 21.2391L7.85917 21.0869ZM14.9881 23.0332L14.8993 23.1575L15.1417 23.3305L15.1408 23.0327L14.9881 23.0332ZM15.0584 10.6641L15.2111 10.6663L15.212 10.6029L15.1678 10.5575L15.0584 10.6641ZM8.46464 7.91113L8.46882 7.75846L8.46782 7.75844L8.46464 7.91113ZM24.4197 6.0166L24.4276 6.16912C24.7729 6.15126 25.1179 6.13464 25.401 6.19612L25.4334 6.04687L25.4658 5.89763C25.135 5.82579 24.7462 5.84679 24.4118 5.86408L24.4197 6.0166ZM25.4334 6.04687L25.401 6.19612C25.4774 6.21272 25.531 6.23275 25.5736 6.25913C25.615 6.28474 25.6532 6.32073 25.6923 6.37899L25.8191 6.29394L25.946 6.2089C25.8863 6.11991 25.818 6.05111 25.7343 5.99937C25.6519 5.94841 25.562 5.91853 25.4658 5.89763L25.4334 6.04687ZM25.8191 6.29394L25.669 6.32219C25.7324 6.65892 25.7867 6.98382 25.7993 7.31538L25.9519 7.30957L26.1046 7.30376C26.091 6.94811 26.033 6.60439 25.9692 6.2657L25.8191 6.29394ZM25.9519 7.30957L25.7993 7.3154C25.827 8.03952 25.8201 8.76955 25.8129 9.50241L25.9656 9.50391L26.1183 9.5054C26.1255 8.77373 26.1326 8.03638 26.1046 7.30373L25.9519 7.30957ZM25.9656 9.50391L25.8129 9.50241C25.8096 9.83467 25.807 10.1674 25.807 10.499H25.9598H26.1125C26.1125 10.1689 26.1151 9.83736 26.1183 9.5054L25.9656 9.50391ZM25.9598 10.499L25.807 10.499L25.8061 16.8076L25.9588 16.8076L26.1115 16.8076L26.1125 10.499L25.9598 10.499ZM25.9588 16.8076L25.8061 16.8078C25.8063 17.0166 25.8132 17.3672 25.8207 17.7908L25.9734 17.7881L26.1261 17.7854C26.1185 17.3596 26.1117 17.0129 26.1115 16.8074L25.9588 16.8076ZM25.9734 17.7881L25.8207 17.7908C25.8339 18.5344 25.8512 19.5088 25.848 20.3636C25.8464 20.7911 25.8397 21.1873 25.8249 21.5089C25.8099 21.8358 25.787 22.0711 25.7572 22.1864L25.9051 22.2246L26.0529 22.2628C26.0919 22.112 26.1152 21.8454 26.1301 21.5229C26.1451 21.1951 26.1519 20.794 26.1535 20.3648C26.1567 19.5061 26.1393 18.5283 26.1261 17.7854L25.9734 17.7881ZM25.9051 22.2246L25.7572 22.1864C25.7133 22.3565 25.649 22.4727 25.5626 22.568C25.4738 22.666 25.3552 22.7491 25.1895 22.8441L25.2654 22.9766L25.3414 23.1091C25.5157 23.0091 25.6676 22.907 25.7889 22.7732C25.9127 22.6366 25.9983 22.4744 26.0529 22.2628L25.9051 22.2246ZM25.2654 22.9766L25.2467 22.825C24.9519 22.8614 24.6427 22.8689 24.3276 22.8756L24.3309 23.0283L24.3341 23.181C24.6469 23.1743 24.9715 23.1668 25.2841 23.1281L25.2654 22.9766ZM24.3309 23.0283L24.3276 22.8756C24.1639 22.8792 23.9975 22.8824 23.8341 22.8904L23.8416 23.043L23.8491 23.1955C24.0073 23.1877 24.1691 23.1846 24.3341 23.181L24.3309 23.0283ZM23.8416 23.043L23.8341 22.8904C22.3191 22.9653 20.6943 23.1161 19.2751 23.7543L19.3377 23.8936L19.4003 24.0328C20.7625 23.4204 22.3359 23.2703 23.8491 23.1955L23.8416 23.043ZM19.3377 23.8936L19.2751 23.7543C18.8976 23.924 18.5129 24.126 18.1736 24.3773L18.2644 24.5L18.3553 24.6227C18.6703 24.3895 19.0332 24.1979 19.4003 24.0328L19.3377 23.8936ZM18.2644 24.5L18.1736 24.3772C17.9979 24.5073 17.804 24.6861 17.6063 24.8681L17.7098 24.9805L17.8132 25.0928C18.0149 24.9071 18.1956 24.741 18.3553 24.6228L18.2644 24.5ZM17.7098 24.9805L17.6063 24.8681C17.3557 25.099 17.0945 25.3391 16.8299 25.526C16.5631 25.7144 16.3123 25.8342 16.0843 25.8465L16.0926 25.999L16.1008 26.1515C16.4158 26.1344 16.7245 25.9743 17.0061 25.7755C17.2898 25.5752 17.5657 25.3208 17.8132 25.0928L17.7098 24.9805ZM16.0926 25.999L16.0844 25.8465C15.8168 25.8608 15.5442 25.757 15.2614 25.5787C14.9785 25.4002 14.7024 25.1585 14.4267 24.9165L14.326 25.0312L14.2252 25.146C14.4969 25.3845 14.7914 25.6434 15.0985 25.837C15.4056 26.0308 15.7426 26.1706 16.1007 26.1515L16.0926 25.999ZM14.326 25.0312L14.4267 24.9165C14.1692 24.6904 13.9085 24.4609 13.6569 24.3064L13.5769 24.4365L13.497 24.5667C13.7219 24.7048 13.9616 24.9147 14.2252 25.146L14.326 25.0312ZM13.5769 24.4365L13.6569 24.3064C13.0658 23.9433 12.4004 23.6659 11.7444 23.457L11.698 23.6025L11.6517 23.7481C12.2915 23.9518 12.9326 24.22 13.497 24.5667L13.5769 24.4365ZM11.698 23.6025L11.7443 23.457C10.6606 23.1122 9.51518 22.9364 8.38459 22.871L8.37577 23.0234L8.36695 23.1759C9.47876 23.2402 10.5979 23.4128 11.6517 23.7481L11.698 23.6025ZM8.37577 23.0234L8.3847 22.871C8.21004 22.8608 8.03102 22.8614 7.85672 22.8619L7.85722 23.0146L7.85772 23.1674C8.03375 23.1668 8.20323 23.1663 8.36685 23.1759L8.37577 23.0234ZM7.85722 23.0146L7.85672 22.8619C7.5283 22.863 7.21537 22.8627 6.92737 22.8009L6.89531 22.9502L6.86324 23.0995C7.18895 23.1695 7.53539 23.1684 7.85772 23.1674L7.85722 23.0146ZM6.89531 22.9502L6.92758 22.8009C6.69971 22.7517 6.55194 22.6415 6.35437 22.4712L6.25468 22.5869L6.15499 22.7026C6.35948 22.8788 6.55616 23.0331 6.86303 23.0995L6.89531 22.9502ZM6.25468 22.5869L6.39486 22.5263C6.25943 22.2131 6.21425 21.8163 6.19628 21.4524L6.04374 21.46L5.89121 21.4675C5.90944 21.8367 5.95585 22.2806 6.1145 22.6475L6.25468 22.5869ZM6.04374 21.46L6.19628 21.4524C6.16415 20.8024 6.17236 20.144 6.18083 19.4824L6.02812 19.4805L5.87541 19.4785C5.86696 20.1385 5.85853 20.8064 5.89121 21.4675L6.04374 21.46ZM6.02812 19.4805L6.18083 19.4824C6.18461 19.1893 6.18847 18.8953 6.18865 18.6026L6.03593 18.6025L5.88321 18.6024C5.88303 18.8929 5.8792 19.185 5.87541 19.4785L6.02812 19.4805ZM6.03593 18.6025L6.18865 18.6026L6.19256 13.0226L6.03984 13.0225L5.88711 13.0224L5.88321 18.6024L6.03593 18.6025ZM6.03984 13.0225L6.19256 13.0223L6.18768 8.8006L6.03495 8.80078L5.88223 8.80096L5.88711 13.0226L6.03984 13.0225ZM6.03495 8.80078L6.18768 8.80068C6.18756 8.61305 6.18027 8.40992 6.17193 8.20284L6.01933 8.20898L5.86673 8.21513C5.87507 8.42228 5.88211 8.61995 5.88223 8.80088L6.03495 8.80078ZM6.01933 8.20898L6.17193 8.20287C6.14916 7.63468 6.1267 7.04895 6.24518 6.59735L6.09745 6.55859L5.94973 6.51984C5.81724 7.02484 5.84453 7.66137 5.86673 8.2151L6.01933 8.20898ZM6.09745 6.55859L6.24517 6.59737C6.29833 6.39485 6.40903 6.30548 6.62917 6.16882L6.54863 6.03906L6.46808 5.90931C6.23593 6.05342 6.03454 6.19673 5.94973 6.51982L6.09745 6.55859ZM6.54863 6.03906L6.55824 6.19148C9.0216 6.03612 11.7099 6.53486 13.8675 7.70267L13.9402 7.56836L14.0129 7.43405C11.7984 6.23542 9.05163 5.72817 6.53901 5.88664L6.54863 6.03906ZM13.9402 7.56836L13.8675 7.70267C14.5829 8.08984 15.2293 8.56463 15.8917 9.05175L15.9822 8.92871L16.0727 8.80567C15.4129 8.32051 14.7498 7.83289 14.0129 7.43405L13.9402 7.56836ZM15.9822 8.92871L16.0719 9.05233C16.4436 8.78267 16.8157 8.51452 17.1957 8.26195L17.1111 8.13476L17.0266 8.00758C16.6409 8.264 16.2641 8.53549 15.8925 8.80509L15.9822 8.92871ZM17.1111 8.13476L17.1957 8.26195C19.2263 6.91195 21.6484 6.24254 24.106 6.18295L24.1023 6.03027L24.0986 5.87759C21.5917 5.93838 19.1118 6.62134 17.0266 8.00758L17.1111 8.13476ZM24.1023 6.03027L24.1061 6.18295C24.2097 6.18042 24.3186 6.17475 24.4276 6.16912L24.4197 6.0166L24.4118 5.86408C24.3019 5.86977 24.1973 5.87519 24.0986 5.87759L24.1023 6.03027ZM24.1336 7.91211L24.1324 7.75939C23.8452 7.76169 23.5056 7.74298 23.1951 7.78311L23.2146 7.93457L23.2342 8.08603C23.5205 8.04905 23.8191 8.06736 24.1348 8.06483L24.1336 7.91211ZM23.2146 7.93457L23.2013 7.78243C22.1692 7.87321 20.9902 8.10215 19.8919 8.50952C18.795 8.9164 17.768 9.50519 17.0519 10.3222L17.1668 10.4229L17.2816 10.5235C17.9523 9.75826 18.9283 9.19271 19.9981 8.79591C21.0666 8.3996 22.2182 8.17553 23.228 8.0867L23.2146 7.93457ZM17.1668 10.4229L17.0515 10.3227C16.9911 10.3923 16.9318 10.464 16.875 10.5375L16.9959 10.6309L17.1168 10.7242C17.1694 10.656 17.225 10.5888 17.2821 10.523L17.1668 10.4229ZM16.9959 10.6309L16.8432 10.6308L16.8402 23.0556L16.993 23.0557L17.1457 23.0557L17.1486 10.6309L16.9959 10.6309ZM16.993 23.0557L17.0811 23.1804C17.3112 23.0176 17.5315 22.8553 17.7601 22.7008L17.6746 22.5742L17.5891 22.4477C17.3572 22.6044 17.1281 22.7731 16.9048 22.931L16.993 23.0557ZM17.6746 22.5742L17.7513 22.7063C19.6233 21.6184 21.9732 21.4279 24.154 21.2754L24.1434 21.123L24.1327 20.9707C21.9649 21.1223 19.5414 21.3127 17.5979 22.4422L17.6746 22.5742ZM24.1434 21.123L24.2961 21.123C24.2962 16.7249 24.3564 12.3114 24.2863 7.90968L24.1336 7.91211L23.9809 7.91454C24.0509 12.3132 23.9907 16.7192 23.9906 21.123L24.1434 21.123ZM7.86113 7.91504L7.70845 7.91115C7.66159 9.75213 7.67216 11.5996 7.68204 13.4412L7.83476 13.4404L7.98748 13.4396C7.9776 11.5971 7.96708 9.75437 8.0138 7.91892L7.86113 7.91504ZM7.83476 13.4404L7.68204 13.4413C7.68612 14.1967 7.68973 14.9522 7.68985 15.7061L7.84257 15.7061L7.99529 15.706C7.99518 14.9513 7.99156 14.1951 7.98748 13.4396L7.83476 13.4404ZM7.84257 15.7061L7.68985 15.7061C7.68996 16.2589 7.68249 16.8156 7.67521 17.375L7.82792 17.377L7.98063 17.3789C7.9879 16.8201 7.99541 16.2613 7.99529 15.706L7.84257 15.7061ZM7.82792 17.377H7.6752V17.3818H7.82792H7.98065V17.377H7.82792ZM7.82792 17.3818L7.67521 17.3799C7.65919 18.6165 7.64305 19.8656 7.70665 21.0948L7.85917 21.0869L8.01169 21.079C7.94868 19.8614 7.96459 18.6222 7.98063 17.3838L7.82792 17.3818ZM7.85917 21.0869L7.84643 21.2391C10.365 21.4501 12.8456 21.6912 14.8993 23.1575L14.9881 23.0332L15.0768 22.9089C12.9446 21.3865 10.3785 21.1447 7.87192 20.9347L7.85917 21.0869ZM14.9881 23.0332L15.1408 23.0327C15.1284 18.9103 15.1518 14.7881 15.2111 10.6663L15.0584 10.6641L14.9057 10.6619C14.8463 14.7854 14.823 18.9095 14.8354 23.0337L14.9881 23.0332ZM15.0584 10.6641L15.1678 10.5575C13.4913 8.83542 10.877 7.82432 8.46882 7.75847L8.46464 7.91113L8.46047 8.0638C10.8004 8.12779 13.3352 9.11302 14.949 10.7706L15.0584 10.6641ZM8.46464 7.91113L8.46782 7.75844C8.2639 7.75419 8.05945 7.75595 7.85628 7.76239L7.86113 7.91504L7.86597 8.06768C8.06444 8.06139 8.2635 8.0597 8.46146 8.06382L8.46464 7.91113Z" fill="#010101"/>
</svg>
